<svg xmlns="http://www.w3.org/2000/svg" viewBox="0 0 168.69 25.15"><defs><style>.cls-1{fill:#fff;}</style></defs><g id="Layer_2" data-name="Layer 2"><g id="LOGO"><path class="cls-1" d="M41.16,15.08a19.81,19.81,0,0,1-.82,2.24,13.4,13.4,0,0,1-2.71.36c-3.55,0-5.36-2.36-5.36-5,0-3,2.3-5.11,5.62-5.11A14.71,14.71,0,0,1,40.7,8c.06.67.16,1.56.28,2.3l-.46.1a2.56,2.56,0,0,0-1.41-1.91,4,4,0,0,0-1.56-.28c-2.44,0-3.73,1.81-3.73,4.25,0,2.86,1.48,4.7,3.88,4.7,1.51,0,2.26-.69,3-2.18Z"/><path class="cls-1" d="M50.45,7.61a4.76,4.76,0,0,1,4.8,4.89,4.91,4.91,0,1,1-9.81.22A4.94,4.94,0,0,1,50.45,7.61Zm-.3.55C48.49,8.16,47,9.55,47,12.32s1.51,4.79,3.62,4.79c1.79,0,3.14-1.33,3.14-4.19C53.74,9.8,52.1,8.16,50.15,8.16Z"/><path class="cls-1" d="M67.84,17.45V17c1.22-.12,1.26-.21,1.25-1.8V9.19c-1.21,2.72-3.17,7-3.69,8.26H65c-.5-1.35-2.18-5.42-3.3-8.11-.26,5.19-.27,6.36-.27,6.65,0,.83.38,1,1.39,1v.41H59.33V17c.86-.09,1.21-.27,1.33-1.07s.11-1.19.49-6.6c.06-.77-.09-1-1.39-1.14V7.81h2.58l3.28,7.52,3.51-7.52h2.6v.42c-1.28.15-1.44.28-1.41,1.32l.06,5.69c.06,1.59.1,1.67,1.4,1.8v.41Z"/><path class="cls-1" d="M79.77,7.81a4.25,4.25,0,0,1,2.51.64,2.51,2.51,0,0,1,1,2.11,3.08,3.08,0,0,1-3.27,3,3.47,3.47,0,0,1-.4,0l-1-.27v2.32c0,1.24.1,1.27,1.47,1.42v.41h-4.1V17c1.28-.13,1.34-.22,1.34-1.45V9.7c0-1.32-.16-1.35-1.34-1.47V7.81Zm-1.2,5a2.66,2.66,0,0,0,1.08.2,2.11,2.11,0,0,0,2.23-2.38,2.11,2.11,0,0,0-2.32-2.28,1.28,1.28,0,0,0-.83.18c-.12.1-.16.28-.16.68Z"/><path class="cls-1" d="M92.45,17.45V17c1-.12,1.08-.27.87-.83s-.49-1.32-.8-2.26h-3.2c-.24.67-.46,1.25-.67,1.86-.33,1-.12,1.08,1.1,1.23v.41H86.32V17c.94-.12,1.17-.22,1.69-1.56L91.08,7.7l.48-.09c.93,2.53,2,5.34,2.89,7.9.47,1.29.61,1.41,1.66,1.53v.41ZM91,9.55c-.47,1.28-1,2.62-1.42,3.8h2.77Z"/><path class="cls-1" d="M104.59,10.07c-.25-1-.67-1.94-2.06-1.94A1.47,1.47,0,0,0,101,9.74c0,1,.65,1.54,1.88,2.18,1.78.92,2.55,1.6,2.55,3s-1.35,2.75-3.26,2.75a6.35,6.35,0,0,1-2.27-.49,19.44,19.44,0,0,1-.4-2.23l.46-.12a2.71,2.71,0,0,0,2.49,2.29,1.63,1.63,0,0,0,1.72-1.71c0-1.14-.61-1.6-1.91-2.31-1.56-.85-2.43-1.56-2.43-2.94s1.1-2.56,3-2.56a9.49,9.49,0,0,1,2,.28c.06.53.12,1.13.24,2.09Z"/><path class="cls-1" d="M114.85,10.07c-.26-1-.67-1.94-2.06-1.94a1.47,1.47,0,0,0-1.56,1.61c0,1,.65,1.54,1.88,2.18,1.78.92,2.55,1.6,2.55,3s-1.35,2.75-3.26,2.75a6.35,6.35,0,0,1-2.27-.49,19.44,19.44,0,0,1-.4-2.23l.46-.12a2.71,2.71,0,0,0,2.49,2.29,1.63,1.63,0,0,0,1.72-1.71c0-1.14-.61-1.6-1.91-2.31-1.56-.85-2.43-1.56-2.43-2.94s1.09-2.56,3-2.56a9.49,9.49,0,0,1,2,.28c.06.53.12,1.13.24,2.09Z"/><path class="cls-1" d="M126.38,17.45V17c1.21-.13,1.33-.19,1.33-1.45V9.7c0-1.28-.12-1.34-1.33-1.47V7.81h4v.42c-1.23.13-1.35.19-1.35,1.47v5.89c0,1.27.12,1.32,1.35,1.45v.41Z"/><path class="cls-1" d="M144.88,8.23c-.95.1-1.26.25-1.3.93,0,.48-.05,1.1-.05,2.48v5.95H143l-6.35-7.76v3.71c0,1.33,0,2,.08,2.43,0,.76.4,1,1.46,1.07v.41h-3.6V17c.92-.08,1.28-.3,1.33-1a25,25,0,0,0,.08-2.5V9.74a1.3,1.3,0,0,0-.3-1c-.28-.37-.59-.46-1.32-.53V7.81h2.23l6.29,7.46V11.64a23,23,0,0,0-.08-2.46c0-.67-.39-.88-1.57-.95V7.81h3.66Z"/><path class="cls-1" d="M156.71,10.14a5.77,5.77,0,0,0-.47-1.23c-.24-.4-.39-.5-1.2-.5h-1.49v7.22c0,1.16.12,1.32,1.53,1.41v.41h-4.32V17c1.38-.09,1.5-.24,1.5-1.41V8.41h-1.35c-.81,0-1,.09-1.3.53a6.46,6.46,0,0,0-.49,1.2h-.45c.09-.9.18-1.84.23-2.67h.34c.22.36.38.34.8.34h5.87a.74.74,0,0,0,.76-.34H157c0,.7.06,1.77.14,2.63Z"/><path class="cls-1" d="M168.69,15c-.09.46-.54,2-.68,2.46h-6.9V17c1.35-.13,1.47-.21,1.47-1.47V9.68c0-1.26-.15-1.33-1.34-1.45V7.81h4v.42c-1.19.12-1.35.18-1.35,1.45v6c0,.9.12,1.11,1,1.13H166c.76,0,1-.09,1.32-.46a4.93,4.93,0,0,0,.91-1.53Z"/><path class="cls-1" d="M4.4,21.25l-.23.23-.23.23a12.48,12.48,0,0,0,8.3,3.44V23.07A10.45,10.45,0,0,1,5.4,20.25Z"/><path class="cls-1" d="M20.75,21.25l-1-1a10.4,10.4,0,0,1-6.85,2.83v2.07a12.51,12.51,0,0,0,8.32-3.43L21,21.48Z"/><path class="cls-1" d="M20.25,5.4a10.5,10.5,0,0,1,2.83,6.84h2.07a12.39,12.39,0,0,0-3.44-8.3l-.23.23-.23.23Z"/><path class="cls-1" d="M24.82,12.9H23.08a10.49,10.49,0,0,1-2.86,6.89l1,1,.23.24.23.23a12.46,12.46,0,0,0,3.47-8.35Z"/><path class="cls-1" d="M.66,12.24H2.08A10.5,10.5,0,0,1,4.9,5.4l-1-1-.23-.23-.23-.23A12.52,12.52,0,0,0,0,12.24H.66Z"/><path class="cls-1" d="M20.78,3.93,21,3.7l.23-.23A12.46,12.46,0,0,0,12.9,0V2.08a10.44,10.44,0,0,1,6.88,2.85Z"/><path class="cls-1" d="M4.37,3.93l1,1a10.43,10.43,0,0,1,6.87-2.86V0A12.44,12.44,0,0,0,3.9,3.47l.23.23Z"/><path class="cls-1" d="M2.08,12.89H0a12.46,12.46,0,0,0,3.47,8.35L3.7,21l.24-.24,1-1A10.37,10.37,0,0,1,2.08,12.89Z"/><path class="cls-1" d="M12.91,22.41h0a5.3,5.3,0,0,0,0-.69h0a9.34,9.34,0,0,1,2.49-5.81l3.87,3.87.25-.22.22-.24-3.88-3.88a9.35,9.35,0,0,1,5.84-2.52l.52,0h.18v0h0c0-.1,0-.2,0-.31s0-.22,0-.33H21.37a9.26,9.26,0,0,1-5.48-2.48l3.89-3.89c-.07-.08-.14-.17-.22-.25h0l-.24-.22-3.9,3.9a9.38,9.38,0,0,1-2.5-5.83h0a5.93,5.93,0,0,0,0-.73h0l-.31,0-.33,0h0V3.81A9.36,9.36,0,0,1,9.75,9.32L5.84,5.4l-.25.22c-.08.08-.14.17-.22.25L9.28,9.78a9.34,9.34,0,0,1-5.47,2.46H2.74c0,.11,0,.21,0,.31s0,.22,0,.33h0v0h.2l.54,0a9.35,9.35,0,0,1,5.82,2.5L5.4,19.31c.08.08.15.17.22.25l-.23.23h0l.23-.24.25.22,3.9-3.89a9.35,9.35,0,0,1,2.47,5.49v1h.33l.33,0Zm2.51-12.18a9.94,9.94,0,0,0,3.16,2H13.41ZM12.9,13.4l2,2a9.87,9.87,0,0,0-2,3.29Zm-3.12,2Zm0-.48a10,10,0,0,0-3.29-2h5.33Zm2.49-3.16-2-2a10.2,10.2,0,0,0,2-3.16Z"/></g></g></svg>